# xmcd
#
# Track frame offsets: 
#        173
#        39529
#        75210
#        100007
#        138908
#        161062
#
# Disc length: 2578 seconds
#
# Revision: 1
# Processed by: cddbd v1.5.2PL0 Copyright (c) Steve Scherf et al.
# Submitted via: ExactAudioCopy v0.99pb4
#
DISCID=3b0a1006
DTITLE=Joachim Kühn - Hip Elegy
DYEAR=1976
DGENRE=Jazz
TTITLE0=Seven Sacred Pools
TTITLE1=Travelling Love
TTITLE2=Bed Stories
TTITLE3=Hip Elegy in Kingsize
TTITLE4=Santa Cruz
TTITLE5=First Frisco
EXTD=Musicians:\nJoachim Kühn: Piano, el. Piano\nPhilip Catherine: Gui
EXTD=tar\nTerumasa Hino: Trumpet\nJohn Lee: Bass Guitar\nAlphonse Mouz
EXTD=on: Drums\nNana Vasconcelos: Percussion
EXTT0=
EXTT1=
EXTT2=
EXTT3=
EXTT4=
EXTT5=
PLAYORDER=
